<?xml version="1.0" encoding="UTF-8"?>
<svg version="1.1" xmlns="http://www.w3.org/2000/svg" width="256" height="256">
<path d="M0 0 C0.97380615 0.47348877 0.97380615 0.47348877 1.96728516 0.95654297 C26.39346541 13.14307649 45.58384655 34.2747838 55 60 C64.40010872 89.43970357 63.1493715 118.93866561 49.20239258 146.72851562 C45.5281124 153.82075141 41.29979907 159.9962428 36 166 C35.28972656 166.84175781 34.57945312 167.68351563 33.84765625 168.55078125 C16.66201216 188.45471703 -9.64366495 201.97475334 -36 204 C-68.56792922 205.69077799 -96.27273889 196.43522345 -120.703125 174.58203125 C-136.33230755 159.80415892 -145.89571836 140.72296161 -151 120 C-151.2475 119.00742188 -151.495 118.01484375 -151.75 116.9921875 C-157.33035765 89.78794396 -150.31331863 61.32340389 -136 38 C-133.52253764 34.47758816 -130.84410469 31.23020686 -128 28 C-127.33613281 27.19304688 -126.67226562 26.38609375 -125.98828125 25.5546875 C-111.21614756 8.13394574 -91.06884619 -2.84309614 -69 -8 C-68.02546875 -8.24363281 -67.0509375 -8.48726562 -66.046875 -8.73828125 C-44.14301539 -13.33809177 -19.99834943 -9.72678249 0 0 Z M-70 33 C-75.83964029 40.55242162 -78.28791056 48.34206825 -77.875 57.890625 C-76.59966274 67.40251537 -71.59930007 74.47409536 -64.265625 80.4921875 C-57.58906137 84.93555571 -49.97482431 87.14517373 -42 86 C-32.55121588 84.00398025 -25.00633213 79.65369992 -19 72 C-13.94897058 62.67385231 -13.04089659 54.12239744 -16 44 C-18.83071716 35.90800224 -24.64007367 29.49524178 -32.25 25.5625 C-45.04756981 19.66609904 -60.62481916 22.36409802 -70 33 Z M-105.43359375 127.84765625 C-108.31106445 131.80148757 -110.57444967 134.95356871 -110 140 C-106.95438468 144.68649355 -103.12026534 148.26471903 -99 152 C-97.81470703 153.15242188 -97.81470703 153.15242188 -96.60546875 154.328125 C-80.89164138 169.1642431 -61.56161373 173.70379094 -40.5546875 173.30859375 C-17.73493353 172.36978175 -0.1196338 160.36991121 15 144 C17.46348901 140.30476648 17.32952712 138.66368801 16.71484375 134.40234375 C14.51831722 127.02057428 7.51434626 122.44894878 1.21484375 118.6640625 C-29.16592476 102.93841562 -80.33012872 99.5994807 -105.43359375 127.84765625 Z " fill="#FBE7B5" transform="translate(174,31)"/>
</svg>
