<?xml version="1.0" encoding="UTF-8"?>
<svg version="1.1" xmlns="http://www.w3.org/2000/svg" width="512" height="512">
<path d="M0 0 C9.42014322 7.65472839 15.68002188 17.43316356 22.29980469 27.453125 C25.11008549 31.66289659 28.02430009 35.79858738 30.9375 39.9375 C32.1133826 41.61321014 33.28916353 43.28899162 34.46484375 44.96484375 C35.04862793 45.79612793 35.63241211 46.62741211 36.23388672 47.48388672 C39.16021864 51.65291862 42.07978099 55.8266852 45 60 C46.16663389 61.66668961 47.33330057 63.33335627 48.5 65 C69.5 95 69.5 95 71.25268555 97.50390625 C72.41031287 99.15761335 73.56802661 100.81125996 74.72583008 102.46484375 C77.78153855 106.82927971 80.83539673 111.19499596 83.88671875 115.5625 C84.52287109 116.47257812 85.15902344 117.38265625 85.81445312 118.3203125 C87.03375658 120.06471744 88.25253406 121.80949019 89.47070312 123.5546875 C90.02048828 124.34101563 90.57027344 125.12734375 91.13671875 125.9375 C91.61842529 126.62714844 92.10013184 127.31679687 92.59643555 128.02734375 C93.5879379 129.42086245 94.6198897 130.7860169 95.67895508 132.12890625 C97 134 97 134 97 136 C97.6391333 135.97905273 98.2782666 135.95810547 98.93676758 135.93652344 C122.4561088 135.26642049 122.4561088 135.26642049 131 140 C131.86496094 140.44730469 132.72992188 140.89460937 133.62109375 141.35546875 C145.12405337 147.73080893 152.39011014 157.26378532 156.9375 169.625 C160.37633844 183.65205903 157.52331675 199.33814626 155.67675781 213.42431641 C155.4261542 215.40086685 155.17651879 217.37754025 154.92776489 219.35432434 C154.25616535 224.66752342 153.57050307 229.97881575 152.88156986 235.28979158 C152.1583542 240.8800666 151.44661674 246.47180523 150.73309326 252.06332397 C149.53385909 261.44658039 148.32536852 270.82860948 147.11132812 280.20996094 C145.71275883 291.01817363 144.32917208 301.82822472 142.95353436 312.63937819 C141.62330479 323.09070129 140.28216983 333.5405981 138.93624115 343.98991013 C138.3665898 348.41406487 137.80072273 352.83867846 137.23801422 357.26372147 C136.57373935 362.48366231 135.89985072 367.7022783 135.21886826 372.92006493 C134.97212907 374.82220087 134.7285546 376.72475078 134.48858261 378.6277523 C131.97123484 398.55657945 129.45531684 417.43105881 113 431 C103.57486852 437.8096188 94.15963834 440.46375218 82.61502075 440.38768005 C81.61855652 440.39306559 80.62209228 440.39845113 79.59543216 440.40399987 C76.2824057 440.41821826 72.96978225 440.41119076 69.65673828 440.40405273 C67.27081991 440.4097595 64.88490428 440.41672495 62.49899292 440.42485046 C56.70636328 440.44090568 50.91385835 440.44288928 45.12121119 440.43763756 C40.40948969 440.43358477 35.69780015 440.43505254 30.98608017 440.44038582 C30.3137116 440.44113424 29.64134303 440.44188266 28.94859966 440.44265376 C27.58237577 440.44418535 26.21615188 440.4457237 24.84992801 440.44726873 C12.05732138 440.46097514 -0.73522398 440.45556929 -13.52782919 440.44408352 C-25.21062745 440.43415407 -36.89326726 440.44709008 -48.57604109 440.47101771 C-60.59524396 440.49544739 -72.61437316 440.50500704 -84.63360035 440.49836498 C-91.3721427 440.49488121 -98.11056329 440.49704886 -104.84908676 440.51461601 C-111.18739219 440.53011504 -117.52539579 440.52609636 -123.86368942 440.50731087 C-126.18396447 440.50363318 -128.50426203 440.50670939 -130.8245163 440.51719666 C-149.48192967 440.59505902 -162.53810142 438.87315645 -176.75 425.6875 C-189.40562152 412.16831842 -190.62608993 393.39750262 -192.84082031 375.83447266 C-193.09678172 373.86124166 -193.35354982 371.88811517 -193.61105347 369.91508484 C-194.30159491 364.60413809 -194.98012423 359.29172402 -195.65573215 353.97885942 C-196.2235217 349.52303815 -196.79737644 345.0680064 -197.37121081 340.61296022 C-198.72612925 330.09332382 -200.07134954 319.57247942 -201.41015625 309.05078125 C-202.78582612 298.24053511 -204.17668264 287.43232175 -205.57525563 276.62501681 C-206.78110309 267.3032564 -207.97802854 257.98038019 -209.16782451 248.65655744 C-209.87608304 243.10668765 -210.58743616 237.55726392 -211.30716705 232.00886917 C-211.98395428 226.78809663 -212.6494528 221.56599989 -213.30673599 216.3427372 C-213.5479158 214.44051381 -213.79284546 212.53876096 -214.0420723 210.63757515 C-215.2427954 201.46059215 -216.20261205 192.3899081 -216.24285889 183.12582397 C-216.2494099 182.03656897 -216.2494099 182.03656897 -216.25609326 180.92530882 C-216.12888925 168.82085512 -210.75206048 158.42043371 -202.78125 149.5234375 C-194.63261983 141.61291666 -184.10351651 135.8383138 -172.578125 135.90234375 C-171.55332031 135.90556641 -170.52851563 135.90878906 -169.47265625 135.91210938 C-168.40917969 135.92048828 -167.34570312 135.92886719 -166.25 135.9375 C-165.17105469 135.94201172 -164.09210938 135.94652344 -162.98046875 135.95117188 C-160.32025617 135.96294273 -157.66015635 135.97938601 -155 136 C-154.71568115 135.24114502 -154.4313623 134.48229004 -154.13842773 133.70043945 C-152.63345054 130.13051607 -150.39126813 127.24886901 -148.0625 124.1875 C-144.16193317 118.96555597 -140.35860041 113.69836394 -136.6875 108.3125 C-132.55921715 102.26427574 -128.39113069 96.24614199 -124.1875 90.25 C-123.59864014 89.40993408 -123.00978027 88.56986816 -122.40307617 87.7043457 C-121.20167417 85.99092421 -120.0000945 84.27762729 -118.79833984 82.56445312 C-115.86275016 78.37826875 -112.93156391 74.18900408 -110 70 C-108.83335519 68.33331803 -107.6666885 66.66665138 -106.5 65 C-105.9225 64.175 -105.345 63.35 -104.75 62.5 C-103 60 -101.25 57.5 -99.5 55 C-98.9220166 54.1742749 -98.3440332 53.3485498 -97.74853516 52.49780273 C-96.58688249 50.83836844 -95.42509955 49.17902534 -94.26318359 47.51977539 C-91.26870425 43.24320842 -88.276802 38.96487264 -85.2890625 34.68359375 C-81.86800084 29.78298287 -78.43901967 24.88802601 -75 20 C-74.56896973 19.38672852 -74.13793945 18.77345703 -73.69384766 18.14160156 C-70.10807121 13.05740295 -66.6520081 8.17487907 -62 4 C-61.51402344 3.52175781 -61.02804688 3.04351562 -60.52734375 2.55078125 C-44.34649516 -12.63549981 -17.63435402 -12.61835999 0 0 Z M-43.09301758 32.62524414 C-46.47869252 36.84140855 -49.51514977 41.28621722 -52.5625 45.75 C-53.97756028 47.80359514 -55.39293045 49.85697677 -56.80859375 51.91015625 C-57.51226074 52.93383301 -58.21592773 53.95750977 -58.94091797 55.01220703 C-61.97889764 59.42041135 -65.05027059 63.80488612 -68.125 68.1875 C-69.2735022 69.82677759 -70.42193986 71.4661004 -71.5703125 73.10546875 C-72.13524414 73.91161621 -72.70017578 74.71776367 -73.28222656 75.54833984 C-75.60457363 78.86286645 -77.92538198 82.17846892 -80.24609375 85.49414062 C-81.99461732 87.99230959 -83.74340197 90.49029566 -85.4921875 92.98828125 C-87.85248124 96.36003531 -90.2117491 99.7325041 -92.5703125 103.10546875 C-93.75519997 104.79948502 -94.94009573 106.49349548 -96.125 108.1875 C-96.69750488 109.00645752 -97.27000977 109.82541504 -97.85986328 110.66918945 C-100.74233927 114.78894307 -103.63505203 118.90092545 -106.546875 123 C-107.10745605 123.78995361 -107.66803711 124.57990723 -108.24560547 125.39379883 C-109.31025767 126.89251136 -110.37690545 128.3898088 -111.44580078 129.88549805 C-113.87787752 132.7030434 -113.87787752 132.7030434 -115 136 C-58.24 136 -1.48 136 57 136 C52.90460027 129.56437185 48.86739227 123.24462972 44.4375 117.0625 C43.39152032 115.59143497 42.34596522 114.12006799 41.30078125 112.6484375 C40.49181396 111.51100098 40.49181396 111.51100098 39.66650391 110.35058594 C36.80111601 106.30898696 33.96356261 102.24796304 31.125 98.1875 C30.54032959 97.35162354 29.95565918 96.51574707 29.35327148 95.65454102 C28.1628094 93.95255353 26.97246144 92.25048622 25.78222656 90.54833984 C22.85623268 86.36456942 19.92804445 82.18233546 17 78 C12.88056585 72.11591736 8.76229566 66.2310265 4.64672852 60.34423828 C3.47404665 58.66851677 2.30007408 56.9936977 1.12475586 55.31982422 C-1.70668895 51.28700301 -4.52182964 47.24499004 -7.30078125 43.17578125 C-7.82978027 42.40838623 -8.3587793 41.64099121 -8.90380859 40.8503418 C-9.88715702 39.42353172 -10.8634182 37.99179564 -11.83056641 36.55395508 C-15.66834078 31.01612006 -20.09032737 25.29211312 -27 23.9375 C-34.65975738 23.58329157 -38.43222739 27.16521543 -43.09301758 32.62524414 Z M-180 174 C-186.65722774 183.9858416 -182.11818924 199.44404766 -180.66088867 210.66479492 C-180.40903543 212.64348776 -180.15776436 214.62225477 -179.9070282 216.60108948 C-179.22749904 221.94877188 -178.53915552 227.29528408 -177.8486383 232.64155746 C-177.27200495 237.11210248 -176.6996048 241.58318547 -176.12715417 246.0542677 C-174.77660896 256.60170184 -173.41879007 267.14818206 -172.05639648 277.6940918 C-170.65235132 288.5634072 -169.26052211 299.43423766 -167.87468547 310.30588835 C-166.68251926 319.65483622 -165.48283589 329.00279845 -164.27712232 338.35000879 C-163.5578867 343.92640207 -162.84147719 349.50312083 -162.13228416 355.08080101 C-161.46543963 360.32277022 -160.78919595 365.56344303 -160.10576057 370.80327415 C-159.85691692 372.72326865 -159.61135941 374.64369243 -159.36937714 376.56456375 C-159.0378394 379.19205898 -158.69431507 381.81772395 -158.3478241 384.44328308 C-158.25539797 385.19844859 -158.16297183 385.9536141 -158.06774491 386.73166341 C-157.19421147 393.18118907 -155.86352073 399.05177378 -151.25 403.875 C-145.01194333 407.95372936 -138.92773759 408.29295481 -131.71487427 408.26069641 C-130.34335435 408.26643473 -130.34335435 408.26643473 -128.94412696 408.27228898 C-125.8912404 408.28257827 -122.83854334 408.27863455 -119.78564453 408.2746582 C-117.59234443 408.27900693 -115.39904584 408.28419062 -113.20574951 408.29014587 C-107.25531914 408.30352992 -101.30495232 408.30411518 -95.35450983 408.30158257 C-90.38434522 408.30051244 -85.41419345 408.30539734 -80.4440316 408.310188 C-68.04679124 408.32191524 -55.64958219 408.32105928 -43.25233994 408.31463119 C-32.49852885 408.30946326 -21.74480838 408.32071565 -10.99101521 408.33972941 C0.06417052 408.35912545 11.11931133 408.36706953 22.17451394 408.36360615 C28.37587467 408.36179403 34.57715242 408.36442257 40.7784996 408.37832069 C46.6111148 408.39090344 52.44354875 408.38895053 58.27616119 408.37590981 C60.41386349 408.37354545 62.55157856 408.37627363 64.6892662 408.38453293 C67.61335582 408.39501388 70.53683882 408.38688868 73.46090698 408.3742218 C74.30148899 408.38159609 75.142071 408.38897037 76.00812519 408.39656812 C82.06146815 408.34161837 88.75247684 407.66735511 93.59530628 403.68969423 C98.47265852 398.23092158 99.34911307 391.69559057 100.22756958 384.68379211 C100.3893914 383.45042776 100.3893914 383.45042776 100.55448234 382.19214696 C100.91331879 379.44562365 101.26354295 376.6980729 101.61376953 373.95043945 C101.86972116 371.97721503 102.12618347 370.0040568 102.38311768 368.03096008 C103.07875655 362.67610027 103.76672429 357.32028093 104.45294428 351.96420693 C105.02709848 347.48853754 105.60505668 343.01336283 106.18303382 338.53818578 C107.54719665 327.97544952 108.90523109 317.41193792 110.25927734 306.84790039 C111.65449289 295.96337466 113.05911444 285.08009302 114.46855843 274.19740134 C115.67963496 264.84412432 116.88526931 255.49015707 118.08648384 246.13560838 C118.80336122 240.55308787 119.5221702 234.97083444 120.24603653 229.38921547 C120.9270212 224.13610751 121.60115887 218.88216427 122.27014923 213.62751579 C122.51606128 211.70481366 122.76431704 209.78240953 123.01515579 207.86034393 C126.41326819 190.29894225 126.41326819 190.29894225 122 174 C116.20307004 168.20307004 109.65423759 167.77437612 101.8622638 167.72785109 C100.27953181 167.73352008 100.27953181 167.73352008 98.66482544 167.73930359 C96.96253778 167.73356527 96.96253778 167.73356527 95.22586048 167.72771102 C91.42673083 167.71740006 87.62775286 167.72136963 83.82861328 167.7253418 C81.10329757 167.72208731 78.37799026 167.71587536 75.65267944 167.70985413 C69.02045483 167.69711683 62.38827072 167.69531223 55.75603594 167.69765439 C50.36392208 167.69943883 44.97182049 167.69768521 39.5797081 167.69342995 C38.81170461 167.69283476 38.04370112 167.69223957 37.2524248 167.69162634 C35.69212112 167.69041457 34.13181744 167.68920043 32.57151376 167.68798397 C17.94489443 167.67711212 3.31829818 167.67926921 -11.30832244 167.68536881 C-24.68106966 167.69053739 -38.05374402 167.67928348 -51.42647682 167.66027059 C-65.16656956 167.64088558 -78.90662785 167.63263737 -92.64673436 167.63639385 C-100.35715389 167.63830492 -108.06751141 167.63582751 -115.77791977 167.62167931 C-122.34207342 167.60975606 -128.90612689 167.60837115 -135.47028194 167.62046947 C-138.81729304 167.62635171 -142.16397115 167.62584356 -145.51099396 167.61546707 C-149.14445156 167.6050154 -152.77741818 167.61308836 -156.41085815 167.6257782 C-157.46155137 167.61840391 -158.51224458 167.61102963 -159.59477699 167.60343188 C-167.00321521 167.65780048 -174.84416948 168.07230531 -180 174 Z " fill="#FBE8B5" transform="translate(285,40)"/>
<path d="M0 0 C12.65747024 9.69419558 22.79205965 21.38236846 30.62890625 35.24755859 C31.10199219 36.06869141 31.57507813 36.88982422 32.0625 37.73583984 C34.7411154 42.70087462 36.60662097 47.82647187 38.31640625 53.18505859 C38.51903076 53.81710205 38.72165527 54.44914551 38.93041992 55.1003418 C41.94181643 65.00390404 42.99415119 74.66566552 42.94140625 84.99755859 C42.93403442 86.71217285 42.93403442 86.71217285 42.92651367 88.46142578 C42.53927557 116.46171919 30.5275147 142.19608271 10.65136719 161.69335938 C-11.77185641 182.87084833 -39.02922658 189.96758963 -69.22265625 189.56396484 C-77.73218878 189.29783317 -85.31891124 187.93161943 -93.37109375 185.24755859 C-94.49902344 184.88533203 -95.62695312 184.52310547 -96.7890625 184.14990234 C-108.74127049 179.93735592 -119.74197684 173.46839515 -129.37109375 165.24755859 C-130.16902344 164.59400391 -130.96695313 163.94044922 -131.7890625 163.26708984 C-152.06373212 146.01004547 -163.96158213 120.19484017 -166.2109375 93.85693359 C-167.89372732 66.43977266 -160.23906735 39.40228319 -142.37109375 18.24755859 C-141.60023438 17.31427734 -140.829375 16.38099609 -140.03515625 15.41943359 C-105.65052998 -24.41777095 -42.40210649 -30.83675652 0 0 Z M-113.37109375 35.24755859 C-126.24112901 48.39288872 -132.92572746 66.57733511 -133.62109375 84.74755859 C-133.35225176 102.27605661 -127.27698635 117.6094529 -116.37109375 131.24755859 C-115.25734375 132.79443359 -115.25734375 132.79443359 -114.12109375 134.37255859 C-100.97115205 148.12022492 -82.6876351 156.33677308 -63.72265625 157.28271484 C-43.64332621 157.0720925 -25.32645997 150.11548914 -11.01953125 135.98583984 C3.42285395 121.05352123 10.19209247 103.32687711 9.9765625 82.62060547 C9.48809225 65.66554601 3.07556288 49.85914046 -8.37109375 37.24755859 C-8.974375 36.56435547 -9.57765625 35.88115234 -10.19921875 35.17724609 C-22.75424664 21.75459433 -40.9365838 14.36674524 -59.11328125 13.25146484 C-80.14804272 13.22624331 -97.96443641 21.04563235 -113.37109375 35.24755859 Z " fill="#FBE8B6" transform="translate(318.37109375,242.75244140625)"/>
<path d="M0 0 C4.96743603 2.30630959 7.36682501 5.25464152 10 10 C10.33686606 12.88871704 10.47131714 15.37092505 10.390625 18.2421875 C10.38496521 19.01055939 10.37930542 19.77893127 10.37347412 20.57058716 C10.35122173 23.00604621 10.30105041 25.43999157 10.25 27.875 C10.22992042 29.5338328 10.2116722 31.19268884 10.1953125 32.8515625 C10.15139406 36.90161799 10.08244763 40.95055306 10 45 C10.63502441 44.97905273 11.27004883 44.95810547 11.92431641 44.93652344 C14.82438076 44.85295419 17.72419116 44.80121226 20.625 44.75 C21.62402344 44.71648437 22.62304688 44.68296875 23.65234375 44.6484375 C29.81229285 44.56684877 33.31627786 44.8867312 38 49 C41.62833663 52.81930172 42.31000458 55.88279006 42.5 61 C42.31000458 66.11720994 41.62833663 69.18069828 38 73 C32.73573631 77.42898965 28.57725694 77.58960225 22 77.53125 C20.56914062 77.53699036 20.56914062 77.53699036 19.109375 77.54284668 C17.09894755 77.54556036 15.08848447 77.53823737 13.078125 77.52148438 C10.00961213 77.50006709 6.94344048 77.52130466 3.875 77.546875 C1.91666152 77.54423163 -0.0416755 77.53910645 -2 77.53125 C-2.91265625 77.53934692 -3.8253125 77.54744385 -4.765625 77.55578613 C-10.32079872 77.474444 -13.69337704 76.84199474 -18 73 C-23.26364776 67.49929054 -22.5798058 61.3345365 -22.53125 54.15625 C-22.5350769 52.91379517 -22.53890381 51.67134033 -22.54284668 50.39123535 C-22.54625856 47.09877278 -22.53021564 43.8070711 -22.5078125 40.51470947 C-22.50000615 38.5015858 -22.50778617 36.48915956 -22.52148438 34.47607422 C-22.54622293 30.59830513 -22.54319411 26.72156237 -22.53125 22.84375 C-22.53934692 21.64673462 -22.54744385 20.44971924 -22.55578613 19.21643066 C-22.48423543 12.85298971 -22.34564235 8.80139508 -18 4 C-12.72867143 -1.00776214 -6.89190982 -0.92775709 0 0 Z " fill="#FBE7B6" transform="translate(262,275)"/>
</svg>
