<?xml version="1.0" standalone="no"?>
<!DOCTYPE svg PUBLIC "-//W3C//DTD SVG 20010904//EN"
 "http://www.w3.org/TR/2001/REC-SVG-20010904/DTD/svg10.dtd">
<svg version="1.0" xmlns="http://www.w3.org/2000/svg"
 width="808.000000pt" height="912.000000pt" viewBox="0 0 808.000000 912.000000"
 preserveAspectRatio="xMidYMid meet">

<g transform="translate(0.000000,912.000000) scale(0.100000,-0.100000)"
fill="#000000" stroke="none">
<path d="M0 9085 c0 -19 3 -35 8 -35 4 1 25 16 46 35 l39 35 -46 0 c-47 0 -47
0 -47 -35z"/>
<path d="M3953 8703 c15 -2 39 -2 55 0 15 2 2 4 -28 4 -30 0 -43 -2 -27 -4z"/>
<path d="M4283 8703 c15 -2 39 -2 55 0 15 2 2 4 -28 4 -30 0 -43 -2 -27 -4z"/>
<path d="M3823 8693 c9 -2 23 -2 30 0 6 3 -1 5 -18 5 -16 0 -22 -2 -12 -5z"/>
<path d="M4443 8693 c9 -2 23 -2 30 0 6 3 -1 5 -18 5 -16 0 -22 -2 -12 -5z"/>
<path d="M3728 8683 c6 -2 18 -2 25 0 6 3 1 5 -13 5 -14 0 -19 -2 -12 -5z"/>
<path d="M4538 8683 c6 -2 18 -2 25 0 6 3 1 5 -13 5 -14 0 -19 -2 -12 -5z"/>
<path d="M3658 8673 c7 -3 16 -2 19 1 4 3 -2 6 -13 5 -11 0 -14 -3 -6 -6z"/>
<path d="M4618 8673 c7 -3 16 -2 19 1 4 3 -2 6 -13 5 -11 0 -14 -3 -6 -6z"/>
<path d="M3588 8663 c7 -3 16 -2 19 1 4 3 -2 6 -13 5 -11 0 -14 -3 -6 -6z"/>
<path d="M4688 8663 c7 -3 16 -2 19 1 4 3 -2 6 -13 5 -11 0 -14 -3 -6 -6z"/>
<path d="M2079 8003 c-13 -16 -12 -17 4 -4 9 7 17 15 17 17 0 8 -8 3 -21 -13z"/>
<path d="M6190 8016 c0 -2 8 -10 18 -17 15 -13 16 -12 3 4 -13 16 -21 21 -21
13z"/>
<path d="M2029 7963 c-13 -16 -12 -17 4 -4 16 13 21 21 13 21 -2 0 -10 -8 -17
-17z"/>
<path d="M6240 7976 c0 -2 8 -10 18 -17 15 -13 16 -12 3 4 -13 16 -21 21 -21
13z"/>
<path d="M1974 7918 l-29 -33 33 29 c30 28 37 36 29 36 -2 0 -16 -15 -33 -32z"/>
<path d="M6280 7947 c0 -2 15 -16 33 -33 l32 -29 -29 33 c-28 30 -36 37 -36
29z"/>
<path d="M1894 7848 l-19 -23 23 19 c12 11 22 21 22 23 0 8 -8 2 -26 -19z"/>
<path d="M6385 7850 c10 -11 20 -20 23 -20 3 0 -3 9 -13 20 -10 11 -20 20 -23
20 -3 0 3 -9 13 -20z"/>
<path d="M3043 7773 c-17 -16 -36 -44 -42 -63 -27 -91 -47 -395 -53 -785 l-3
-220 99 0 c83 0 101 3 110 17 8 13 8 23 -2 38 -18 29 -18 824 1 817 6 -2 90
-55 185 -116 95 -61 175 -111 177 -111 3 0 5 18 5 41 0 49 43 99 85 99 19 0
26 4 23 17 -2 11 -78 53 -213 117 -116 56 -232 118 -259 139 -27 20 -56 37
-65 37 -9 0 -31 -12 -48 -27z"/>
<path d="M1759 7723 l-34 -38 38 34 c20 19 37 36 37 38 0 8 -8 0 -41 -34z"/>
<path d="M6520 7725 c19 -19 36 -35 39 -35 3 0 -10 16 -29 35 -19 19 -36 35
-39 35 -3 0 10 -16 29 -35z"/>
<path d="M1634 7588 l-19 -23 23 19 c12 11 22 21 22 23 0 8 -8 2 -26 -19z"/>
<path d="M6645 7590 c10 -11 20 -20 23 -20 3 0 -3 9 -13 20 -10 11 -20 20 -23
20 -3 0 3 -9 13 -20z"/>
<path d="M1564 7508 l-29 -33 33 29 c30 28 37 36 29 36 -2 0 -16 -15 -33 -32z"/>
<path d="M6690 7537 c0 -2 15 -16 33 -33 l32 -29 -29 33 c-28 30 -36 37 -36
29z"/>
<path d="M1519 7453 c-13 -16 -12 -17 4 -4 9 7 17 15 17 17 0 8 -8 3 -21 -13z"/>
<path d="M6750 7466 c0 -2 8 -10 18 -17 15 -13 16 -12 3 4 -13 16 -21 21 -21
13z"/>
<path d="M3638 7454 c-5 -4 -8 -20 -8 -35 0 -19 -10 -35 -32 -53 -18 -14 -29
-28 -25 -32 10 -10 56 16 68 39 11 20 8 93 -3 81z"/>
<path d="M1479 7403 c-13 -16 -12 -17 4 -4 9 7 17 15 17 17 0 8 -8 3 -21 -13z"/>
<path d="M6790 7416 c0 -2 8 -10 18 -17 15 -13 16 -12 3 4 -13 16 -21 21 -21
13z"/>
<path d="M3088 6633 l-1117 -3 -12 -23 c-19 -34 -209 -268 -248 -305 -29 -27
-34 -36 -25 -50 10 -16 100 -17 1425 -19 1478 -3 1459 -3 1467 38 3 15 -220
316 -260 352 -14 12 -34 16 -67 15 -25 -2 -549 -4 -1163 -5z"/>
<path d="M4686 6534 c-96 -15 -116 -25 -116 -56 0 -12 48 -86 106 -166 79
-109 102 -147 92 -153 -7 -5 -42 -9 -78 -10 -36 -1 -117 -4 -180 -8 l-115 -6
-44 -218 c-44 -215 -44 -218 -25 -237 18 -18 92 -24 999 -79 539 -33 1003 -63
1032 -66 72 -7 88 9 79 87 -12 120 -82 244 -211 374 -286 289 -770 497 -1245
535 -69 5 -143 11 -165 13 -22 2 -80 -2 -129 -10z"/>
<path d="M2707 6125 c-467 -7 -852 -17 -857 -21 -5 -5 135 -679 311 -1499 175
-820 319 -1503 319 -1520 0 -16 8 -43 18 -58 l17 -28 599 1 c329 0 603 3 608
6 5 3 8 11 7 17 -1 7 1 19 4 27 3 8 124 703 267 1544 211 1235 259 1530 248
1537 -17 11 -477 9 -1541 -6z m978 -250 c111 -22 133 -33 166 -78 34 -47 36
-83 9 -138 -32 -63 -54 -67 -150 -30 -187 72 -349 13 -391 -143 -12 -44 -4
-165 12 -180 5 -6 9 -18 9 -28 0 -10 27 -71 61 -135 86 -167 99 -209 99 -315
0 -98 -28 -204 -74 -276 -36 -58 -120 -128 -194 -163 -37 -17 -74 -34 -82 -39
-41 -20 -134 -32 -227 -28 -91 3 -107 7 -175 40 -40 21 -83 45 -95 55 -12 10
-37 30 -56 45 -36 28 -79 96 -91 142 -8 31 6 60 38 82 22 14 28 14 63 -1 21
-9 58 -33 83 -54 140 -116 195 -124 348 -49 84 42 194 144 227 213 58 117 41
254 -50 420 -127 230 -140 263 -140 345 0 64 4 83 29 128 64 115 216 187 436
204 42 4 43 4 145 -17z m-1076 -77 c-12 -24 -28 -65 -35 -93 -17 -62 -18 -254
-2 -292 6 -15 12 -35 12 -43 2 -23 36 -15 107 26 67 38 169 86 169 79 0 -2 -7
-34 -16 -72 -23 -99 -14 -197 25 -270 17 -31 30 -57 28 -58 -1 -1 -54 -10
-117 -19 -63 -9 -149 -23 -190 -31 -152 -28 -148 -28 -160 -5 -6 11 -15 111
-20 223 -8 191 -43 452 -70 522 -9 23 -7 25 16 25 14 0 53 7 86 15 32 9 85 20
116 24 31 5 60 9 65 10 4 0 -2 -18 -14 -41z m353 -551 c0 -49 -4 -93 -9 -98
-4 -4 -8 40 -8 99 0 82 -4 115 -17 141 -10 19 -18 39 -17 45 0 6 12 -13 26
-43 22 -47 26 -68 25 -144z"/>
<path d="M821 5894 c0 -11 3 -14 6 -6 3 7 2 16 -1 19 -3 4 -6 -2 -5 -13z"/>
<path d="M7461 5894 c0 -11 3 -14 6 -6 3 7 2 16 -1 19 -3 4 -6 -2 -5 -13z"/>
<path d="M811 5824 c0 -11 3 -14 6 -6 3 7 2 16 -1 19 -3 4 -6 -2 -5 -13z"/>
<path d="M7471 5824 c0 -11 3 -14 6 -6 3 7 2 16 -1 19 -3 4 -6 -2 -5 -13z"/>
<path d="M802 5750 c0 -14 2 -19 5 -12 2 6 2 18 0 25 -3 6 -5 1 -5 -13z"/>
<path d="M7482 5750 c0 -14 2 -19 5 -12 2 6 2 18 0 25 -3 6 -5 1 -5 -13z"/>
<path d="M792 5655 c0 -16 2 -22 5 -12 2 9 2 23 0 30 -3 6 -5 -1 -5 -18z"/>
<path d="M7492 5655 c0 -16 2 -22 5 -12 2 9 2 23 0 30 -3 6 -5 -1 -5 -18z"/>
<path d="M4286 5562 c-3 -5 -8 -26 -11 -48 -10 -61 25 -142 86 -199 74 -70
126 -90 230 -89 78 1 90 3 122 28 l36 28 82 -31 c68 -26 94 -31 169 -31 98 0
205 27 234 59 16 18 19 17 97 -22 76 -39 84 -41 172 -42 81 0 99 4 145 27 l52
27 35 -24 c41 -27 191 -65 256 -65 50 1 112 21 138 44 15 14 21 13 64 -8 65
-33 183 -44 228 -22 18 9 38 16 45 16 26 0 36 40 29 109 -9 83 -17 99 -58 106
-39 7 -2041 145 -2102 145 -24 0 -46 -4 -49 -8z"/>
<path d="M783 5510 c0 -30 2 -43 4 -27 2 15 2 39 0 55 -2 15 -4 2 -4 -28z"/>
<path d="M7503 5510 c0 -30 2 -43 4 -27 2 15 2 39 0 55 -2 15 -4 2 -4 -28z"/>
<path d="M4217 5219 c-31 -24 -57 -101 -57 -170 0 -61 34 -104 93 -120 23 -6
65 -17 92 -24 28 -7 109 -18 180 -24 72 -6 171 -16 220 -21 714 -76 1500 -90
1685 -29 92 31 143 83 160 163 14 70 2 126 -33 151 -29 20 -42 19 -96 -7 -36
-17 -64 -22 -127 -23 -71 0 -85 3 -122 28 -23 15 -44 27 -46 27 -3 0 -16 -12
-30 -26 -20 -22 -35 -27 -93 -31 -81 -6 -210 19 -247 48 -31 24 -70 24 -104 1
-91 -64 -277 -55 -368 17 -35 28 -48 27 -93 -9 -35 -28 -44 -31 -147 -36 -122
-7 -203 4 -270 37 l-43 22 -53 -23 c-73 -31 -191 -44 -229 -25 -15 8 -36 15
-46 15 -10 0 -46 18 -81 40 -71 45 -107 50 -145 19z"/>
<path d="M783 5180 c0 -30 2 -43 4 -27 2 15 2 39 0 55 -2 15 -4 2 -4 -28z"/>
<path d="M7503 5180 c0 -30 2 -43 4 -27 2 15 2 39 0 55 -2 15 -4 2 -4 -28z"/>
<path d="M792 5035 c0 -16 2 -22 5 -12 2 9 2 23 0 30 -3 6 -5 -1 -5 -18z"/>
<path d="M7492 5035 c0 -16 2 -22 5 -12 2 9 2 23 0 30 -3 6 -5 -1 -5 -18z"/>
<path d="M802 4940 c0 -14 2 -19 5 -12 2 6 2 18 0 25 -3 6 -5 1 -5 -13z"/>
<path d="M7482 4940 c0 -14 2 -19 5 -12 2 6 2 18 0 25 -3 6 -5 1 -5 -13z"/>
<path d="M811 4864 c0 -11 3 -14 6 -6 3 7 2 16 -1 19 -3 4 -6 -2 -5 -13z"/>
<path d="M7471 4864 c0 -11 3 -14 6 -6 3 7 2 16 -1 19 -3 4 -6 -2 -5 -13z"/>
<path d="M4126 4805 c-10 -28 -44 -202 -61 -320 -24 -164 -20 -171 120 -178
39 -2 266 -23 505 -46 239 -23 651 -61 916 -86 l480 -44 81 19 c111 26 183 61
213 101 77 104 98 169 107 330 7 153 6 155 -97 133 -119 -26 -381 -52 -475
-48 -49 3 -187 13 -305 24 -118 10 -339 26 -490 35 -151 8 -302 20 -335 25
-33 5 -172 21 -310 35 -137 13 -271 27 -296 31 -38 4 -47 2 -53 -11z"/>
<path d="M821 4794 c0 -11 3 -14 6 -6 3 7 2 16 -1 19 -3 4 -6 -2 -5 -13z"/>
<path d="M7461 4794 c0 -11 3 -14 6 -6 3 7 2 16 -1 19 -3 4 -6 -2 -5 -13z"/>
<path d="M1470 3296 c0 -2 8 -10 18 -17 15 -13 16 -12 3 4 -13 16 -21 21 -21
13z"/>
<path d="M6799 3283 c-13 -16 -12 -17 4 -4 16 13 21 21 13 21 -2 0 -10 -8 -17
-17z"/>
<path d="M1510 3246 c0 -2 8 -10 18 -17 15 -13 16 -12 3 4 -13 16 -21 21 -21
13z"/>
<path d="M6759 3233 c-13 -16 -12 -17 4 -4 9 7 17 15 17 17 0 8 -8 3 -21 -13z"/>
<path d="M1540 3207 c0 -2 15 -16 33 -33 l32 -29 -29 33 c-28 30 -36 37 -36
29z"/>
<path d="M6714 3178 l-29 -33 33 29 c17 17 32 31 32 33 0 8 -8 1 -36 -29z"/>
<path d="M1635 3100 c10 -11 20 -20 23 -20 3 0 -3 9 -13 20 -10 11 -20 20 -23
20 -3 0 3 -9 13 -20z"/>
<path d="M6644 3098 l-19 -23 23 19 c12 11 22 21 22 23 0 8 -8 2 -26 -19z"/>
<path d="M1760 2965 c19 -19 36 -35 39 -35 3 0 -10 16 -29 35 -19 19 -36 35
-39 35 -3 0 10 -16 29 -35z"/>
<path d="M1895 2840 c10 -11 20 -20 23 -20 3 0 -3 9 -13 20 -10 11 -20 20 -23
20 -3 0 3 -9 13 -20z"/>
<path d="M1950 2797 c0 -2 15 -16 33 -33 l32 -29 -29 33 c-28 30 -36 37 -36
29z"/>
<path d="M2020 2736 c0 -2 8 -10 18 -17 15 -13 16 -12 3 4 -13 16 -21 21 -21
13z"/>
<path d="M2070 2696 c0 -2 8 -10 18 -17 15 -13 16 -12 3 4 -13 16 -21 21 -21
13z"/>
<path d="M3588 2023 c7 -3 16 -2 19 1 4 3 -2 6 -13 5 -11 0 -14 -3 -6 -6z"/>
<path d="M4688 2023 c7 -3 16 -2 19 1 4 3 -2 6 -13 5 -11 0 -14 -3 -6 -6z"/>
<path d="M3658 2013 c7 -3 16 -2 19 1 4 3 -2 6 -13 5 -11 0 -14 -3 -6 -6z"/>
<path d="M4618 2013 c7 -3 16 -2 19 1 4 3 -2 6 -13 5 -11 0 -14 -3 -6 -6z"/>
<path d="M3728 2003 c6 -2 18 -2 25 0 6 3 1 5 -13 5 -14 0 -19 -2 -12 -5z"/>
<path d="M4538 2003 c6 -2 18 -2 25 0 6 3 1 5 -13 5 -14 0 -19 -2 -12 -5z"/>
<path d="M3823 1993 c9 -2 23 -2 30 0 6 3 -1 5 -18 5 -16 0 -22 -2 -12 -5z"/>
<path d="M4443 1993 c9 -2 23 -2 30 0 6 3 -1 5 -18 5 -16 0 -22 -2 -12 -5z"/>
<path d="M3953 1983 c15 -2 39 -2 55 0 15 2 2 4 -28 4 -30 0 -43 -2 -27 -4z"/>
<path d="M4283 1983 c15 -2 39 -2 55 0 15 2 2 4 -28 4 -30 0 -43 -2 -27 -4z"/>
</g>
</svg>
